<svg height="480" viewBox="0 0 426 480" width="426" xmlns="http://www.w3.org/2000/svg"><g fill-rule="evenodd"><g fill-rule="nonzero"><path d="m368.522 232v176h-48c-4.418 0-8 3.582-8 8v48h-296v-448h352v104h16v-112c0-4.418-3.582-8-8-8h-368c-4.418 0-8 3.582-8 8v464c0 4.418 3.582 8 8 8h312c2.121-.005 4.154-.847 5.656-2.344l56-56c.669-.68 1.211-1.474 1.6-2.344.112-.248.176-.488.264-.744.23-.672.37-1.371.416-2.08 0-.168.096-.32.096-.488v-184zm-40 220.688v-28.688h28.688z"/><path d="m418.178 134.344c-9.877-9.442-25.435-9.442-35.312 0l-140 140c-1.5 1.5-2.344 3.534-2.344 5.656v24c0 4.418 3.582 8 8 8h24c2.122 0 4.156-.844 5.656-2.344l140-140c9.734-9.758 9.734-25.554 0-35.312zm-148.968 161.656h-12.688v-12.688l100-100 12.688 12.688zm111.312-111.312-12.688-12.688 8.688-8.688 12.688 12.688zm26.344-26.344-6.344 6.344-12.688-12.688 6.344-6.344c3.55-3.391 9.138-3.391 12.688 0 3.488 3.51 3.488 9.178 0 12.688z"/><path d="m72.522 104c-17.673 0-32 14.327-32 32s14.327 32 32 32 32-14.327 32-32-14.327-32-32-32zm0 48c-8.837 0-16-7.163-16-16s7.163-16 16-16 16 7.163 16 16-7.164 16-16 16z"/></g><path d="m222.178 37.656-11.312-11.312-18.344 18.344-18.344-18.344-11.312 11.312 18.344 18.344-18.344 18.344 11.312 11.312 18.344-18.344 18.344 18.344 11.312-11.312-18.344-18.344z"/><path d="m296.522 96c-17.673 0-32 14.327-32 32s14.327 32 32 32 32-14.327 32-32-14.327-32-32-32zm0 48c-8.837 0-16-7.163-16-16s7.163-16 16-16 16 7.163 16 16-7.164 16-16 16z" fill-rule="nonzero"/><path d="m96.522 328c-17.673 0-32 14.327-32 32s14.327 32 32 32 32-14.327 32-32-14.327-32-32-32zm0 48c-8.837 0-16-7.163-16-16s7.163-16 16-16 16 7.163 16 16-7.164 16-16 16z" fill-rule="nonzero"/><path d="m134.178 221.656-11.312-11.312-18.344 18.344-18.344-18.344-11.312 11.312 18.344 18.344-18.344 18.344 11.312 11.312 18.344-18.344 18.344 18.344 11.312-11.312-18.344-18.344z"/><path d="m334.178 333.656-11.312-11.312-18.344 18.344-18.344-18.344-11.312 11.312 18.344 18.344-18.344 18.344 11.312 11.312 18.344-18.344 18.344 18.344 11.312-11.312-18.344-18.344z"/><path d="m146.49 160h13.6v-16h-32c-4.418 0-8 3.582-8 8v32h16v-11.2c34.703 44.743 32.205 107.959-5.92 149.824l11.848 10.768c44.34-48.668 46.244-122.503 4.472-173.392z"/><path d="m192.522 368c-17.673 0-32 14.327-32 32s14.327 32 32 32 32-14.327 32-32-14.327-32-32-32zm0 48c-8.837 0-16-7.163-16-16s7.163-16 16-16 16 7.163 16 16-7.164 16-16 16z" fill-rule="nonzero"/><path d="m246.178 114.344-24-24-11.312 11.312 10.344 10.344h-100.688v16h100.688l-10.344 10.344 11.312 11.312 24-24c3.123-3.124 3.123-8.188 0-11.312z"/><path d="m264.522 160h-32v16h12.96c-39.294 41.833-61.104 97.11-60.96 154.504l-.000709 21.496h16.000709v-21.496c-.132-53.015 19.885-104.1 56-142.912v12.408h16v-32c0-4.418-3.582-8-8-8z"/></g></svg>