<?xml version="1.0" encoding="utf-8"?>
<!-- Generator: Adobe Illustrator 23.0.4, SVG Export Plug-In . SVG Version: 6.00 Build 0)  -->
<svg version="1.1" id="Layer_1" xmlns="http://www.w3.org/2000/svg" xmlns:xlink="http://www.w3.org/1999/xlink" x="0px" y="0px"
	 viewBox="0 0 510 156" style="enable-background:new 0 0 510 156;" xml:space="preserve" width="124" height="39">
<style type="text/css">
	.st0{fill:#009DA2;}
	.st1{fill:#FD2900;}
	.st2{fill:#2E3192;}
	.st3{fill:#FF6B3C;}
	.st4{fill:#0071EA;}
	.st5{fill:#FFFFFF;}
</style>
<path class="st0" d="M66.9,0.2L133.6,67V0.2L66.9,0.2z"/>
<path class="st1" d="M0,0.2v133.5L66.7,67L0,0.2z"/>
<path class="st2" d="M100.2,100.4l33.4,33.3V67L100.2,100.4z"/>
<path class="st3" d="M100.2,33.6L66.9,67L33.5,33.6H100.2z"/>
<path class="st4" d="M0.1,133.7h133.5L66.9,67L0.1,133.7z"/>
<g>
	<path class="st5" d="M185.2,61.9V13.3h-18.4V0.1h53.3v13.2h-18.4v48.6H185.2z"/>
	<path class="st5" d="M265.9,21.3c2.6,3.2,3.9,7.9,3.9,14.3v26.3h-15.7V36.3c0-2.7-0.5-4.7-1.4-5.9s-2.4-1.8-4.3-1.8
		c-2.4,0-4.3,0.8-5.7,2.4c-1.4,1.6-2.2,3.7-2.2,6.3v24.5h-15.7V0.4h15.7v22.8c3.4-4.4,8-6.6,13.8-6.6
		C259.5,16.6,263.4,18.2,265.9,21.3"/>
	<path class="st5" d="M317.5,41.4h-27.7c0.3,3.4,1.3,5.9,2.9,7.4c1.7,1.5,4.1,2.3,7.4,2.3c2.2,0,4.4-0.4,6.6-1.1s4.2-1.7,6-3l4,10.4
		c-2.2,1.6-4.9,2.9-8,3.8s-6.2,1.4-9.4,1.4c-5,0-9.4-0.9-13.1-2.8c-3.7-1.8-6.5-4.5-8.5-7.9s-3-7.5-3-12.2c0-4.5,0.9-8.4,2.8-11.9
		s4.5-6.2,7.8-8.2s7.1-2.9,11.4-2.9c4.2,0,7.8,0.9,10.9,2.8s5.5,4.5,7.2,7.9s2.5,7.4,2.5,12v2H317.5z M290.1,34.1h14.1
		c-0.6-4.5-2.8-6.8-6.8-6.8C293.5,27.3,291,29.6,290.1,34.1"/>
	<path class="st5" d="M167,72.5h29.4c7.1,0,12.5,1.7,16.4,5.1s5.8,8,5.8,13.7s-2,10.3-5.9,13.7s-9.4,5.1-16.3,5.1h-13.1v24.1H167
		L167,72.5z M194.2,98c6.1,0,9.2-2.2,9.2-6.5c0-2.2-0.7-3.9-2.2-5s-3.8-1.7-7-1.7h-10.9V98H194.2z"/>
	<path class="st5" d="M266.7,89.2V134h-15.4v-6.7c-1.3,2.1-3.1,3.7-5.6,4.9c-2.4,1.2-5.1,1.8-8,1.8c-3.8,0-7.1-0.9-10.1-2.8
		s-5.2-4.5-6.9-7.9c-1.6-3.4-2.5-7.4-2.5-11.9c0-4.6,0.8-8.6,2.5-12.1s4-6.3,6.9-8.2c2.9-2,6.3-2.9,10-2.9c2.9,0,5.5,0.6,7.9,1.9
		c2.4,1.2,4.3,2.9,5.6,5v-5.6h15.6V89.2z M249,119.4c1.5-1.9,2.3-4.7,2.3-8.2c0-3.6-0.8-6.4-2.3-8.4c-1.5-1.9-3.6-2.9-6.4-2.9
		c-2.7,0-4.9,1-6.4,3c-1.6,2-2.3,4.8-2.3,8.5c0,3.5,0.8,6.2,2.3,8.1s3.7,2.8,6.5,2.8C245.4,122.3,247.5,121.3,249,119.4"/>
	<path class="st5" d="M313.8,93.9c2.6,3.2,3.9,7.9,3.9,14.3V134H302v-25.1c0-2.7-0.5-4.7-1.4-5.9s-2.4-1.8-4.3-1.8
		c-2.4,0-4.3,0.8-5.7,2.4s-2.2,3.7-2.2,6.3V134h-15.7v-30.9c0-4.7-0.2-9-0.7-12.7h14.7l0.8,6.5c1.7-2.5,3.8-4.4,6.2-5.7
		c2.5-1.3,5.3-2,8.4-2C307.3,89.2,311.2,90.8,313.8,93.9"/>
	<path class="st5" d="M332.6,131.3c-3.6-1.8-6.4-4.5-8.4-8s-3-7.5-3-12.2s1-8.8,3-12.2c2-3.5,4.8-6.1,8.4-8
		c3.6-1.8,7.9-2.8,12.8-2.8s9.1,0.9,12.7,2.8s6.4,4.5,8.4,8c2,3.4,2.9,7.5,2.9,12.2s-1,8.7-2.9,12.2c-2,3.4-4.8,6.1-8.4,8
		s-7.9,2.8-12.7,2.8S336.3,133.2,332.6,131.3 M354,111.1c0-3.8-0.7-6.6-2.1-8.5c-1.4-1.8-3.5-2.7-6.4-2.7s-5.1,0.9-6.5,2.7
		s-2.2,4.6-2.2,8.5s0.7,6.7,2.2,8.5c1.4,1.8,3.6,2.7,6.5,2.7C351.2,122.4,354,118.6,354,111.1"/>
	<path class="st5" d="M412.5,91.1c3,2,5.3,4.7,6.9,8.2c1.7,3.5,2.5,7.6,2.5,12.1s-0.8,8.5-2.5,11.9c-1.6,3.4-3.9,6.1-6.9,7.9
		c-2.9,1.9-6.3,2.8-10.1,2.8c-2.9,0-5.5-0.6-7.9-1.7s-4.2-2.7-5.5-4.7v24.5h-15.7V102c0-4.7-0.2-9-0.7-12.7h14.7l0.9,6.9
		c1.1-2.4,2.9-4.4,5.5-5.9c2.5-1.5,5.4-2.2,8.7-2.2C406.2,88.1,409.6,89.1,412.5,91.1 M404.1,119.6c1.4-1.8,2.2-4.6,2.2-8.2
		s-0.7-6.5-2.2-8.5s-3.6-3-6.4-3s-5,1-6.5,2.9s-2.3,4.7-2.3,8.4c0,3.6,0.8,6.3,2.3,8.2s3.7,2.9,6.5,2.9
		C400.5,122.4,402.7,121.5,404.1,119.6"/>
	<path class="st5" d="M425.9,69.9h15.7v63.8h-15.7V69.9z"/>
	<path class="st5" d="M496.5,90.4L476.3,136c-2.7,6-6,10.3-10,13.1c-4,2.7-9,4.5-14.9,5.2l-3.6-12c4-0.8,7.1-1.9,9.1-3.1
		c2-1.3,3.6-3,4.6-5.3l1.1-2.4l-18-41h16.3l9.9,25.4L481,90.5L496.5,90.4z"/>
	<path class="st5" d="M493.1,117.9h16.4V134h-16.4V117.9z"/>
</g>
</svg>
