<svg height="150" viewBox="0 0 150 150" width="150" xmlns="http://www.w3.org/2000/svg"><g fill="none" fill-rule="evenodd" transform="translate(19 28)"><path d="m37.5652174 44c-.6086957.4660194-1.3695652.6213592-2.1304348.9320388l-2.4347826 13.6699029c.6086957.3106797 1.0652174.9320389 1.5217391 1.3980583l19.4782609-4.5048544z"/><path d="m57.6153846 51c.9230769-.4528302 2-.9056604 3.2307692-.9056604l6.1538462-14.3396226c-.3076923-.3018868-.4615385-.4528302-.6153846-.754717l-25.3846154 4.9811321z"/><path d="m55.3138686 61-19.1605839 4.3385827c0 .2992126-.1532847.5984252-.1532847.7480315l16.0948905 13.9133858c.3065694-.1496063.7664234-.2992126 1.2262774-.2992126l3.6788321-16.9055118c-.6131387-.5984252-1.2262774-1.0472441-1.6861314-1.7952756z"/><path d="m97.1956522 45.544 3.8043478-17.024c-.608696-.456-1.0652174-.912-1.5217391-1.52l-19.326087 4.408c0 .152-.1521739.304-.1521739.608l15.826087 13.984c.3043478-.152.7608695-.304 1.3695652-.456z"/><path d="m32.1956522 30.544 3.8043478-17.176c-.6086957-.456-1.0652174-.912-1.5217391-1.368l-19.326087 4.408c0 .304-.1521739.456-.1521739.76l15.673913 13.832c.4565218-.152.9130435-.304 1.5217392-.456z"/><path d="m67 51.953271c.308642.2990654.617284.7476636.9259259 1.046729l24.0740741-2.3925234-15.8950617-13.6074766c-.925926.4485981-1.8518519.5981308-2.7777778.5981308z"/><path d="m41.8571429 14.3533835-3.8571429 16.9924812c.6171429.4511278 1.2342857 1.0526315 1.5428571 1.6541353l25.4571429-5.112782-20.2114286-14.887218c-.7714285.6015038-1.8514285 1.0526316-2.9314285 1.3533835z"/><path d="m7.65582656 22.4157303c1.07181572 0 2.14363143-.3049759 3.06233064-.6099518l15.9241192 13.8764045c-.1531165.7624398-.306233 1.3723916-.306233 2.1348314 0 2.5922954 1.2249322 4.7271269 3.2154471 6.0995185l-2.4498645 13.4189406c-3.2154471.7624398-5.6653116 3.6597111-5.6653116 7.1669342 0 4.117175 3.3685636 7.4719101 7.50271 7.4719101 1.2249322 0 2.296748-.3049759 3.2154471-.7624398l15.6178862 13.8764045c-.306233.7624398-.4593496 1.5248796-.4593496 2.4398074 0 4.1171749 3.3685637 7.4719101 7.5027101 7.4719101 4.1341463 0 7.50271-3.3547352 7.50271-7.4719101 0-2.4398074-1.2249323-4.5746389-3.0623306-5.9470305l3.8279132-17.0786517c2.7560976-.6099518 4.899729-2.5922953 5.6653117-5.3370786l23.5799458-2.4398074c1.2249322 2.1348314 3.6747967 3.659711 6.4308943 3.659711 4.1341464 0 7.5027104-3.3547351 7.5027104-7.4719101 0-2.4398074-1.071816-4.4221509-2.909214-5.7945425l3.827913-17.3836276c3.368564-.7624398 5.818428-3.6597111 5.818428-7.1669342 0-4.117175-3.368564-7.4719101-7.50271-7.4719101-3.674797 0-6.5840109 2.5922953-7.3495935 5.9470305l-19.4457995 4.4221509c-1.3780488-1.8298556-3.5216802-3.0497593-5.9715447-3.0497593-1.3780488 0-2.7560976.4574639-3.8279133 1.0674158l-21.1300813-15.5537721c0-.15248796 0-.30497593 0-.45746389 0-4.11717496-3.3685637-7.47191011-7.50271-7.47191011-3.6747968 0-6.5840108 2.59229535-7.3495935 5.9470305l-19.4457995 4.4221509c-1.3780487-1.82985556-3.52168017-2.89727129-5.97154467-2.89727129-4.13414634 0-7.50271003 3.35473519-7.50271003 7.47191009 0 4.117175 3.52168022 7.4719101 7.65582656 7.4719101zm7.34959354-5.9470305 19.4457994-4.4221508c.4593496.6099518.9186992 1.0674157 1.5311653 1.3723916l-3.8279133 17.2311397c-.4593495.1524879-1.0718157.3049759-1.5311653.4574638l-15.7710027-14.0288924c0-.152488.1531166-.4574639.1531166-.6099519zm64.9214092 15.0963082 19.4457994-4.4221509c.4593496.6099519.9186993 1.0674158 1.5311653 1.5248797l-3.8279132 17.0786516c-.6124662.152488-1.0718158.304976-1.5311654.4574639l-15.9241192-14.0288924c.1531165-.152488.3062331-.304976.3062331-.6099519zm11.6368563 19.2134832-23.8861788 2.4398074c-.3062331-.4574639-.6124661-.7624399-.9186992-1.0674158l6.1246612-14.4863563c.9186992 0 1.9905149-.3049759 2.7560976-.6099519zm-39.6571815 29.8876404-16.0772358-14.1813804c0-.3049759.1531165-.4574639.1531165-.7624398l19.1395664-4.4221509c.4593496.6099519 1.0718157 1.2199037 1.6842819 1.6773676l-3.8279133 17.2311396c-.3062331.152488-.6124661.304976-1.0718157.4574639zm-18.9864499-22.1107544 2.4498645-13.4189406c.7655827-.152488 1.3780488-.4574639 2.1436314-.9149278l16.3834689 11.1316212-19.598916 4.4221509c-.3062331-.4574639-.7655827-.9149278-1.3780488-1.2199037zm33.6856369-24.0930979c.1531165.3049759.4593496.6099518.6124661.7624398l-6.1246613 14.4863563c-1.2249322 0-2.2967479.304976-3.2154471.9149278l-16.5365854-11.2841091zm-26.9485095-.9149278c-.4593496-.6099518-.9186992-1.2199037-1.5311653-1.6773676l3.8279132-17.0786516c1.0718158-.304976 2.1436315-.7624398 2.9092141-1.3723917l20.0582656 15.0963082z" fill="#000" fill-rule="nonzero"/></g></svg>