<svg height="150" viewBox="0 0 150 150" width="150" xmlns="http://www.w3.org/2000/svg"><g transform="translate(18 19)"><path d="m111.340091 54.5790947h-26.7191829v-3.7478377h7.2089443c.9164681 0 1.6594666-.7375316 1.6594666-1.6472564s-.7429985-1.6472564-1.6594666-1.6472564h-7.2089443v-3.7480573h5.0049513c1.8645767 0 3.6176373-.7206198 4.9359176-2.0294199l10.91398-10.8336757c.711137.3516343 1.499494.5387626 2.317279.5387626 1.390855 0 2.698293-.5376645 3.681804-1.5137188.98351-.9762739 1.52516-2.2740923 1.52516-3.6547128s-.54165-2.6784389-1.52516-3.6547128c-.98329-.976274-2.290949-1.5139384-3.681804-1.5139384-1.390854 0-2.698292.5376644-3.681803 1.5137188-.983511.9762739-1.52516 2.2740923-1.52516 3.6547128 0 .8117679.188515 1.5943245.542756 2.3002288l-10.9139804 10.8336757c-.6914444.6863569-1.6110102 1.0645669-2.5892104 1.0645669h-5.0049514v-3.6345064c0-4.7915394-3.9271831-8.6896069-8.7540183-8.6896069h-3.6614472v-14.5826116c2.0595087-.6894317 3.5472759-2.62375 3.5472759-4.89784235 0-2.84997317-2.3358653-5.16843161-5.2067425-5.16843161-2.8708773 0-5.2067425 2.31867808-5.2067425 5.16843161 0 2.27409235 1.4877671 4.20819095 3.5472759 4.89784235v14.582392h-3.7756185v-7.1559014c0-.9097248-.7429985-1.6472564-1.6594666-1.6472564s-1.6594667.7375316-1.6594667 1.6472564v7.1559014h-3.7758397v-26.52258482c0-.90972479-.7429985-1.64725638-1.6594666-1.64725638s-1.6594666.73753159-1.6594666 1.64725638v26.52258482h-3.7756185v-7.1559014c0-.9097248-.7429985-1.6472564-1.6594666-1.6472564s-1.6594667.7375316-1.6594667 1.6472564v7.1559014h-3.7756184v-4.9679056c0-1.8508573-.7261826-3.5910189-2.0446842-4.8995994l-10.9177415-10.83740956c.964482-1.93300045.6412179-4.34326598-.9782003-5.95098821-2.0303021-2.01514364-5.3335257-2.014924-7.3636066 0-2.0300808 2.01514364-2.0300808 5.29406237 0 7.30942564 1.0151511 1.007462 2.3484772 1.51130283 3.6818033 1.51130283.7938888 0 1.5864501-.1829553 2.3132965-.5403001l10.9177416 10.8376292c.6916656.6863568 1.0724579 1.5991565 1.0724579 2.5699396v4.9679056h-3.6614471c-.7401222 0-1.4762616.0922463-2.1878408.2738838-.8874828.2266625-1.421831 1.1247467-1.1934884 2.005919s1.133305 1.4115889 2.0207878 1.1847068c.4414181-.1126724.8989884-.1699969 1.3603201-.1699969h39.020477c2.9969967 0 5.4350851 2.4203687 5.4350851 5.3950941v38.7335865c0 .457498-.0575282.9114819-.1708145 1.3492128-.2281213.8811724.3064482 1.7790369 1.193931 2.0054798.1385101.0353611.2774628.0522729.4144241.0522729.7392371 0 1.413423-.4939573 1.6059212-1.2376386.1827625-.705465.2754714-1.4355291.2754714-2.1695465v-3.6345065h14.6904836c.6945426 2.044355 2.6431986 3.5211753 4.9341476 3.5211753 2.871098 0 5.206742-2.3184585 5.206742-5.1684317 0-2.8499731-2.335865-5.1684316-5.206742-5.1684316-2.290949 0-4.239384 1.4768203-4.9341476 3.5211753h-14.6904836v-3.7480574h7.2089443c.9164681 0 1.6594666-.7375316 1.6594666-1.6472564s-.7429985-1.6472563-1.6594666-1.6472563h-7.2089443v-3.7476181h26.7194042c.916468 0 1.659466-.7375316 1.659466-1.6472564s-.742998-1.6472564-1.659466-1.6472564zm-4.882151-29.6082254c.356675-.3540503.830618-.5488658 1.334875-.5488658s.9782.1948155 1.334875.5488658.552934.8245067.552934 1.325053-.196259.9710027-.552934 1.325053-.830618.5488659-1.334875.5488659-.9782-.1948156-1.334875-.5488659-.552934-.8245067-.552934-1.325053.196259-.9712224.552934-1.325053zm-78.9189224-18.47694538c-.7359181.73028366-1.9336105.73050329-2.6699712-.00021964-.7361394-.73072293-.7361394-1.91960276 0-2.65010606.3681804-.36547128.851417-.54798729 1.3350963-.54798729.4834579 0 .9669158.18273564 1.3348749.54798729.7361394.73072293.7361394 1.91960277 0 2.6503257zm43.0067371 4.06960178c-1.0408175 0-1.8878093-.84075964-1.8878093-1.87391885 0-1.0331592.8467706-1.87391885 1.8878093-1.87391885s1.8878092.84075965 1.8878092 1.87391885c0 1.03315921-.8469918 1.87391885-1.8878092 1.87391885zm33.6997843 57.8738271c1.041039 0 1.887809.8407597 1.887809 1.8739189 0 1.0333788-.846991 1.8739188-1.887809 1.8739188-1.040817 0-1.887809-.8407596-1.887809-1.8739188-.000221-1.0333789.84677-1.8739189 1.887809-1.8739189z"/><path d="m90.4774357 104.176996c-1.6194221-1.607696-4.0477807-1.928576-5.9951142-.971206l-10.9177678-10.8374565c-.6916673-.6863458-1.0724605-1.5991309-1.0724605-2.5698985v-4.9678263h3.6614559c.7401239 0 1.4760438-.0922449 2.1874036-.2738794.8874849-.2266589 1.4218344-1.1247287 1.1934912-2.005887-.2283431-.8809386-1.132644-1.4113467-2.0207926-1.1846879-.441198.1126706-.8987693.1697746-1.3601022.1697746h-39.0205708c-2.9970039 0-5.4350982-2.4203301-5.4350982-5.395008v-38.7327483c0-.4579299.0575284-.9121262.1710362-1.3498501.2285644-.8809386-.3057852-1.7790085-1.1932701-2.005887-.8877061-.2268784-1.7924495.3035296-2.0207926 1.1844683-.1832056.705893-.2759147 1.4363846-.2759147 2.1712688v3.6344485h-14.6907402c-.6945438-2.0443224-2.6432048-3.521119-4.9341593-3.521119-2.87110543 0-5.20675501 2.3184214-5.20675501 5.168349 0 2.8499277 2.33587084 5.1683491 5.20675501 5.1683491 2.2909545 0 4.2393943-1.4767966 4.9341593-3.521119h14.690519v3.7479975h-7.2089617c-.9164703 0-1.6594706.7375198-1.6594706 1.6472301 0 .9097102.7430003 1.6472301 1.6594706 1.6472301h7.2089617v3.7477778h-26.71924708c-.91647031 0-1.65947062.7375198-1.65947062 1.6472301 0 .9097102.74300031 1.6472301 1.65947062 1.6472301h26.71924708v3.7477778h-7.2089617c-.9164703 0-1.6594706.7375198-1.6594706 1.6472301 0 .9097102.7430003 1.6472301 1.6594706 1.6472301h7.2089617v3.7479974h-5.0049634c-1.8645812 0-3.617646.7206083-4.9359294 2.0293875l-10.91400639 10.8335027c-.71113847-.3516287-1.49949765-.538754-2.31728477-.538754-1.39085763 0-2.69829922.5376559-3.68181214 1.5136946-.98307039.9762584-1.5247216 2.2742757-1.5247216 3.6546545s.54165121 2.6783961 1.52516413 3.6546544c.98329165.9762584 2.2909545 1.5136946 3.68181214 1.5136946s2.69829922-.5376559 3.68181214-1.5136946c.98351292-.9762583 1.52516409-2.274056 1.52516409-3.6546544 0-.811755-.1885158-1.5942991-.54275748-2.3001921l10.91400638-10.8335028c.6914461-.6863458 1.611014-1.0645498 2.5892167-1.0645498h5.0049633v3.6344484c0 4.7914628 3.9271926 8.6894681 8.7540394 8.6894681h3.661456v14.5821591c-2.0595137.6894204-3.5472844 2.6237084-3.5472844 4.8977644 0 2.849927 2.3358709 5.168349 5.206755 5.168349 2.8708842 0 5.206755-2.318641 5.206755-5.168349 0-2.274056-1.4877707-4.208124-3.5472844-4.8977644v-14.5821591h3.7756276v7.155787c0 .9097103.7430003 1.6472301 1.6594706 1.6472301s1.6594706-.7375198 1.6594706-1.6472301v-7.155787h3.7754063v26.5226005c0 .90971.7430003 1.64723 1.6594706 1.64723s1.6594706-.73752 1.6594706-1.64723v-26.5221613h3.7756276v7.1557871c0 .9097103.7430003 1.6472301 1.6594706 1.6472301s1.6594706-.7375198 1.6594706-1.6472301v-7.1557871h3.7756276v4.9678263c0 1.8508277.7261843 3.5909615 2.044689 4.8995211l10.9177678 10.8372369c-.9644843 1.932969-.6412194 4.343196.9784239 5.950893 1.0149323 1.007665 2.3484828 1.511278 3.6818122 1.511278 1.3333293 0 2.6668799-.503613 3.6818121-1.511278 2.0300857-2.015112 2.0300857-5.293978 0-7.30909zm-81.7233963-59.6132558c-1.04104124 0-1.88781378-.8407463-1.88781378-1.873889 0-1.0333623.84699381-1.8738889 1.88781378-1.8738889s1.8878138.8407462 1.8878138 1.8738889c.0002212 1.0333624-.84677257 1.873889-1.8878138 1.873889zm-2.21240623 43.4657893c-.35667555.3540447-.83062036.5488571-1.33487816.5488571-.50425781 0-.97820262-.1948124-1.33487817-.5488571-.35667555-.3540446-.55293561-.8244935-.55293561-1.3250318 0-.5005384.19626006-.9709873.55293561-1.3250319.35667555-.3540447.83062036-.5488571 1.33487817-.5488571.5042578 0 .97820261.1948124 1.33487816.5488571.35667555.3540446.55293561.8244935.55293561 1.3250319 0 .5005383-.19626006.9712068-.55293561 1.3250318zm37.80008553 16.2810025c0 1.033143-.8467726 1.873889-1.8878138 1.873889s-1.8878138-.840746-1.8878138-1.873889.8469938-1.873889 1.8878138-1.873889 1.8878138.840746 1.8878138 1.873889zm43.7890043 4.846151c-.7361412.730711-1.9338364.730491-2.6699776 0-.7361412-.730711-.7361412-1.919572 0-2.650064.3681812-.365246.8516403-.547978 1.3350994-.547978s.9669182.182732 1.3348782.547978c.7359199.730492.7359199 1.919353 0 2.650064z"/><path d="m74 52.042282c0-3.568043-2.5041937-6.5904246-5.9324117-7.5725262.1013887-.4362177.1577394-.8848924.1577394-1.3433548 0-3.3780736-2.8770905-6.126401-6.4131008-6.126401-1.9154989 0-3.6361182.8072586-4.8122269 2.0832121-1.1761086-1.2759535-2.8969413-2.0832121-4.8122268-2.0832121-3.5362237 0-6.4131008 2.7483274-6.4131008 6.126401 0 .4584624.0563507.9071371.1577394 1.3433548-3.4282181.9818792-5.9324117 4.0042607-5.9324117 7.5725262 0 1.7437586.5921099 3.3889735 1.6860404 4.7476771-1.0695972 1.4430109-1.6860404 3.1947776-1.6860404 5.0597697-.0004269 2.8366386 1.4540204 5.48531 3.8495681 7.1283003v.0040041c0 3.8696805 3.3086861 7.0179668 7.3757596 7.0179668 2.3372758 0 4.4224674-1.0408275 5.7746722-2.6597936 1.3522049 1.6189661 3.4373965 2.6597936 5.7746723 2.6597936 3.9140299 0 7.1241023-2.9162745 7.3601778-6.5848634 2.377191-1.4374497 3.8651499-3.9553224 3.8651499-6.6740644 0-1.9997947-.8181533-3.9074965-2.2262819-5.3493951 1.4079152-1.4418987 2.2262819-3.3498229 2.2262819-5.3493951zm-5.6658129 6.8246607c1.5426021.8484112 2.4634248 2.2967609 2.4634248 3.8741295 0 1.176075-.5244463 2.2978731-1.4102632 3.1367191-.8416327-1.6240824-2.3291648-2.9169419-4.2085907-3.5322291-.8431269-.2760562-1.7419642.2126589-2.007069 1.0915453-.2651047.8791089.2040581 1.8156089 1.0473985 2.0916651 1.6320375.5345391 2.7287429 1.9223833 2.7287429 3.453483 0 2.029825-1.8723821 3.6812683-4.1740119 3.6812683-2.3014163 0-4.1737984-1.6514433-4.1737984-3.6812683v-10.6990127c0-2.0298249 1.8723821-3.6810458 4.1737984-3.6810458.8841093 0 1.6008739-.7469756 1.6008739-1.6683493s-.7167646-1.6683493-1.6008739-1.6683493c-1.5483652 0-2.9861634.4573502-4.1737984 1.2361356v-2.1310381c0-.9213737-.7167646-1.6683493-1.6008739-1.6683493-.8841092 0-1.6008738.7469756-1.6008738 1.6683493v9.2620078c-.5387475-.3523553-1.1295766-.6439828-1.7686455-.853305-.8439807-.2762787-1.7421777.2126589-2.007069 1.0913229-.2651047.8791088.2038447 1.8156089 1.047185 2.0918875 1.6320376.5345391 2.7285295 1.9223833 2.7285295 3.4532606v3.5662634c0 2.0298249-1.8723821 3.6812682-4.1737984 3.6812682-2.3016298 0-4.1740119-1.6514433-4.1740119-3.6812682 0-.8699886.3538999-1.7157304.9963839-2.3812906.6271157-.649544.630104-1.7059427.0068304-2.3594907-.6232735-.6535481-1.6367334-.6566623-2.2638491-.0071183-.3835694.397512-.7137763.8317277-.9882728 1.2933043-1.0108985-.9965606-1.6010873-2.3076607-1.6010873-3.678154 0-2.4718263 1.8614961-4.6433497 4.5268444-5.2806591.8616971-.2059856 1.4000176-1.1011106 1.202363-1.9991274-.1976545-.8982392-1.0567902-1.459027-1.9182738-1.2530415-1.0730124.2564809-2.0608583.6846906-2.9368565 1.246813-.56799-.7434164-.8738637-1.6140723-.8738637-2.5214318.0006404-2.5094198 2.2832731-4.5523691 5.0971825-4.5717219.0143011.0004449.0286022.0024469.0426899.0024469.3654262 0 .7327734-.1296864 1.0335242-.3950651.6136683-.541435.7368289-1.4601393.3248707-2.1512808-.0121667-.0204651-.023266-.0413751-.036073-.0611728-.006617-.0100101-.0145146-.0195753-.021345-.0295854-.0247602-.0362588-.0501607-.0718503-.0776958-.106107-.0008538-.0011123-.0014941-.0022245-.0023479-.0031143-.2670258-.3289985-.5857064-.8735477-.5857064-1.6000582 0-1.538218 1.4407865-2.7897024 3.211353-2.7897024s3.211353 1.2514844 3.211353 2.7897024c0 .9213737.7167646 1.6683493 1.6008739 1.6683493s1.6008739-.7469756 1.6008739-1.6683493c0-1.538218 1.4407865-2.7897024 3.211353-2.7897024s3.211353 1.2514844 3.211353 2.7897024c0 .4110813-.1033097.7616571-.2401311 1.0499478-.910577.089646-1.7912711.3189884-2.6273542.6864702-.8147381.3579165-1.1965999 1.336459-.8531591 2.1855375.3434409.8488561 1.2824068 1.2472579 2.0971448.889119.6920045-.3040845 1.4365175-.4604644 2.2130481-.4666929.0153684.0004448.0305233.002002.0458917.002002.0143012 0 .0283888-.002002.04269-.0024469 2.8139094.0191304 5.0965421 2.0623021 5.0965421 4.5717219 0 1.5773686-.9208227 3.0254958-2.4634248 3.8741294-.5250866.2887357-.8537994.8566418-.8537994 1.4754881 0 .6188464.3287128 1.1867525.8537994 1.4754881z"/></g></svg>