<svg height="150" viewBox="0 0 150 150" width="150" xmlns="http://www.w3.org/2000/svg"><g fill-rule="evenodd" transform="translate(33 28)"><g fill-rule="nonzero"><path d="m72.6663099 45.9166667v34.8333333h-9.4647888c-.8711549 0-1.5774648.7089375-1.5774648 1.5833333v9.5h-58.36619715v-88.66666663h69.40845075v20.58333333h3.1549295v-22.16666667c0-.87439583-.7063098-1.58333333-1.5774648-1.58333333h-72.56338023c-.87115493 0-1.57746479.7089375-1.57746479 1.58333333v91.83333337c0 .8743958.70630986 1.5833333 1.57746479 1.5833333h61.52112673c.4182254-.0009896.8190986-.1676354 1.1152676-.4639167l11.0422536-11.0833333c.1319154-.1345833.2387887-.2917292.3154929-.4639167.0220845-.0490833.0347042-.0965833.0520563-.14725.0453522-.133.0729578-.2713437.0820282-.4116666 0-.03325.0189296-.0633334.0189296-.0965834v-36.4166666zm-7.887324 43.6778333v-5.6778333h5.6567887z"/><path d="m82.4576338 26.5889167c-1.9475775-1.8687292-5.0153521-1.8687292-6.9629296 0l-27.6056338 27.7083333c-.2957746.296875-.4621972.6994375-.4621972 1.1194167v4.75c0 .8743958.7063099 1.5833333 1.5774648 1.5833333h4.7323944c.4184225 0 .819493-.1670417 1.1152676-.4639167l27.6056338-27.7083333c1.9193803-1.9312708 1.9193803-5.0575625 0-6.9888333zm-29.3739718 31.9944166h-2.5018592v-2.5111666l19.7183099-19.7916667 2.5018591 2.5111667zm21.948845-22.0305-2.5018591-2.5111666 1.7131267-1.7195 2.5018592 2.5111666zm5.1945916-5.2139166-1.2509296 1.2555833-2.5018591-2.5111667 1.2509295-1.2555833c.7-.6711354 1.8018592-.6711354 2.5018592 0 .6877746.6946875.6877746 1.8164792 0 2.5111667z"/><path d="m14.3001127 20.5833333c-3.4848169 0-6.30985918 2.8355521-6.30985918 6.3333334 0 3.4977812 2.82504228 6.3333333 6.30985918 6.3333333s6.3098591-2.8355521 6.3098591-6.3333333c0-3.4977813-2.8250422-6.3333334-6.3098591-6.3333334zm0 9.5c-1.7425071 0-3.1549296-1.4176771-3.1549296-3.1666666 0-1.7489896 1.4124225-3.1666667 3.1549296-3.1666667 1.742507 0 3.1549296 1.4176771 3.1549296 3.1666667 0 1.7489895-1.4126198 3.1666666-3.1549296 3.1666666z"/></g><path d="m44 7.28864311-2.2886431-2.28864311-3.7113569 3.71135689-3.7113569-3.71135689-2.2886431 2.28864311 3.7113569 3.71135689-3.7113569 3.7113569 2.2886431 2.2886431 3.7113569-3.7113569 3.7113569 3.7113569 2.2886431-2.2886431-3.7113569-3.7113569z"/><path d="m59 19c-3.3136875 0-6 2.6863125-6 6s2.6863125 6 6 6 6-2.6863125 6-6-2.6863125-6-6-6zm0 9c-1.6569375 0-3-1.3430625-3-3s1.3430625-3 3-3 3 1.3430625 3 3-1.34325 3-3 3z" fill-rule="nonzero"/><path d="m19 65c-3.3136875 0-6 2.6863125-6 6s2.6863125 6 6 6 6-2.6863125 6-6-2.6863125-6-6-6zm0 9c-1.6569375 0-3-1.3430625-3-3s1.3430625-3 3-3 3 1.3430625 3 3-1.34325 3-3 3z" fill-rule="nonzero"/><path d="m26 43.2886431-2.2886431-2.2886431-3.7113569 3.7113569-3.7113569-3.7113569-2.2886431 2.2886431 3.7113569 3.7113569-3.7113569 3.7113569 2.2886431 2.2886431 3.7113569-3.7113569 3.7113569 3.7113569 2.2886431-2.2886431-3.7113569-3.7113569z"/><path d="m66 66.2886431-2.2886431-2.2886431-3.7113569 3.7113569-3.7113569-3.7113569-2.2886431 2.2886431 3.7113569 3.7113569-3.7113569 3.7113569 2.2886431 2.2886431 3.7113569-3.7113569 3.7113569 3.7113569 2.2886431-2.2886431-3.7113569-3.7113569z"/><path d="m29.1398001 31.2102729h2.6477759v-3.2102729h-6.2300608c-.8601378 0-1.5575152.7186998-1.5575152 1.6051364v6.4205458h3.1150304v-2.247191c6.7563062 8.9773274 6.2699721 21.6611155-1.1525613 30.0609952l2.30668 2.1605136c8.632528-9.7648475 9.0032166-24.5792536.870651-34.7897271z"/><path d="m38 74c-3.3136875 0-6 2.6863125-6 6s2.6863125 6 6 6 6-2.6863125 6-6-2.6863125-6-6-6zm0 9c-1.6569375 0-3-1.3430625-3-3s1.3430625-3 3-3 3 1.3430625 3 3-1.34325 3-3 3z" fill-rule="nonzero"/><path d="m48.542523 22.8556784-4.687564-4.8556784-2.2094053 2.2886431 2.0203402 2.0927974h-19.6658939v3.237119h19.6658939l-2.0203402 2.0927974 2.2094053 2.2886431 4.687564-4.8556784c.6099693-.6320475.6099693-1.6565957 0-2.2886432z"/><path d="m52.3636495 32h-6.5454018v3.1666667h2.6508878c-8.0373444 8.2794479-12.4984448 19.2196875-12.4689905 30.5789166l-.000145 4.2544167h3.2728459v-4.2544167c-.0269998-10.492552 4.0673536-20.603125 11.4544532-28.2846666v2.45575h3.2727009v-6.3333334c0-.8743958-.7326759-1.5833333-1.6363505-1.5833333z"/></g></svg>