<svg height="692.79302" viewBox="0 0 1011.66744 692.79302" width="1011.66744" xmlns="http://www.w3.org/2000/svg"><path d="m1051.34427 667.2931c-4.36676 0-8.55719 2.12251-12.4624 5.9791-10.62165-38.27736-27.0647-62.87563-45.5376-62.87563s-34.916 24.59827-45.5376 62.87563c-3.90521-3.85659-8.09564-5.9791-12.4624-5.9791-20.98682 0-38 48.39956-38 108.10341h192c0-59.70385-17.01319-108.10341-38-108.10341z" fill="#d0cde1" transform="translate(-94.16628 -103.60349)"/><path d="m483.34373 606.12065a21.13606 21.13606 0 0 0 -12.4624 4.38468c-10.62164-28.07008-27.0647-46.10882-45.5376-46.10882s-34.916 18.03874-45.5376 46.10882a21.13606 21.13606 0 0 0 -12.4624-4.38468c-20.98682 0-38 35.493-38 79.27586h192c0-43.78284-17.01318-79.27586-38-79.27586z" fill="#d0cde1" transform="translate(-94.16628 -103.60349)"/><path d="m1105.83372 796.39651h-1009.97998c.91-82.06 226.66-148.5 504.99-148.5s504.08007 66.44 504.98998 148.5z" fill="#3f3d56" transform="translate(-94.16628 -103.60349)"/><circle cx="129.17745" cy="240.97047" fill="#d0cde1" r="129.17745"/><path d="m227.51075 714.39651h-7.29228v-354.78915a122.11809 122.11809 0 0 1 3.64613-29.61793 122.1176 122.1176 0 0 1 3.64614 29.61793z" fill="#3f3d56" transform="translate(-94.16628 -103.60349)"/><path d="m224.27419 454.43239-3.8411-6.19865 53.956-33.4348a22.97361 22.97361 0 0 1 12.47721-3.44231 22.97361 22.97361 0 0 1 -8.63612 9.641z" fill="#3f3d56" transform="translate(-94.16628 -103.60349)"/><path d="m221.73239 420.73644 3.8411-6.19864-37.13085-23.0088a13.81615 13.81615 0 0 0 -9.86988-1.82663 13.81618 13.81618 0 0 0 6.02878 8.02526z" fill="#3f3d56" transform="translate(-94.16628 -103.60349)"/><path d="m221.73239 562.41494 3.8411-6.19865-37.13085-23.00883a13.81615 13.81615 0 0 0 -9.86988-1.82663 13.81617 13.81617 0 0 0 6.02878 8.02527z" fill="#3f3d56" transform="translate(-94.16628 -103.60349)"/><circle cx="814.17745" cy="242.79302" fill="#d0cde1" r="124"/><g transform="translate(-94.16628 -103.60349)"><path d="m904.34373 701.39651h7v-340.56914a117.22326 117.22326 0 0 0 -3.5-28.43085 117.22326 117.22326 0 0 0 -3.5 28.43085z" fill="#3f3d56"/><path d="m907.45056 451.85179 3.68716-5.9502-51.7934-32.09473a22.053 22.053 0 0 0 -11.97713-3.30435 22.0529 22.0529 0 0 0 8.29 9.25454z" fill="#3f3d56"/><path d="m909.89049 419.50638-3.68715-5.9502 35.64266-22.08663a13.26236 13.26236 0 0 1 9.47429-1.75342 13.26238 13.26238 0 0 1 -5.78714 7.70361z" fill="#3f3d56"/><path d="m909.89049 555.50638-3.68715-5.9502 35.64266-22.08663a13.26236 13.26236 0 0 1 9.47429-1.75342 13.26238 13.26238 0 0 1 -5.78714 7.70361z" fill="#3f3d56"/><path d="m242.4479 783.94824a8.0728 8.0728 0 0 0 -3.24542.6885c-2.76605-4.4077-7.0481-7.24023-11.85875-7.24023s-9.0927 2.83253-11.85875 7.24023a8.0728 8.0728 0 0 0 -3.24542-.6885c-5.46531 0-9.89583 5.57328-9.89583 12.44827h50c0-6.87499-4.43052-12.44827-9.89583-12.44827z" fill="#d0cde1"/><path d="m552.4479 775.431a5.45088 5.45088 0 0 0 -3.24542 1.15959c-2.76605-7.42349-7.0481-12.19407-11.85875-12.19407s-9.0927 4.77058-11.85875 12.19407a5.45088 5.45088 0 0 0 -3.24542-1.15959c-5.46531 0-9.89583 9.38659-9.89583 20.96552h50c0-11.57894-4.43052-20.96552-9.89583-20.96552z" fill="#d0cde1"/><path d="m983.4479 775.431a5.45088 5.45088 0 0 0 -3.24542 1.15959c-2.76605-7.42349-7.0481-12.19407-11.85875-12.19407s-9.0927 4.77058-11.85875 12.19407a5.45088 5.45088 0 0 0 -3.24542-1.15959c-5.46531 0-9.89583 9.38659-9.89583 20.96552h50c0-11.57894-4.43052-20.96552-9.89583-20.96552z" fill="#38d39f"/></g><path d="m621.362 482.069-1.588 7.545-1.986 7.545-6.353 89.746 21.841 1.589 9.927-98.086-1.588-5.162z" fill="#2f2e41"/><path d="m696.86463 678.19837-9.13344 13.89872s-25.41479 20.64952-7.14791 21.84083 25.01772-12.31029 25.01772-12.31029 6.35369-1.98553 7.14791-3.97106-1.58843-19.4582-1.58843-19.4582z" fill="#2f2e41" transform="translate(-94.16628 -103.60349)"/><path d="m707.18939 688.92024s-9.13344 23.03215-7.94212 27.00321 3.17685 3.97107 2.77974 7.545-1.58842 11.91318 13.50161 12.31029 7.94212-19.85531 7.94212-19.85531l-1.98553-27.00321z" fill="#2f2e41" transform="translate(-94.16628 -103.60349)"/><path d="m679.392 518.56172s-5.55948 9.53054-4.76527 15.48714 12.31027 69.89067 12.31027 69.89067l9.13344 77.8328 20.25241-1.58843-7.94212-71.8762 1.98553-57.18328 3.574 42.09325 23.42926.79421 13.89872-59.963s-10.32476-16.67846-12.31029-17.86978-59.56595 2.38262-59.56595 2.38262z" fill="#2f2e41" transform="translate(-94.16628 -103.60349)"/><circle cx="612.82456" cy="277.36096" fill="#ffb8b8" r="17.07556"/><path d="m607.861 288.281 2.382 22.635 26.209-3.971-14.295-26.606z" fill="#ffb8b8"/><path d="m728.63312 403.79805s-13.50161 9.92765-26.60611 4.36817l-19.8553 50.43247v63.13988s29.783 8.73633 46.46141-1.58843c0 0 11.91318-2.38263 13.89871-1.98553s-7.14791-107.61575-7.14791-107.61575z" fill="#d0cde1" transform="translate(-94.16628 -103.60349)"/><path d="m716.32283 406.18069 9.13344 13.1045a15.80706 15.80706 0 0 1 1.58843 10.72186c-1.19132 6.3537-2.38264 89.34888 8.73633 92.52573s18.26688 2.77974 18.26688 2.77974-9.92765-47.65273-6.3537-55.992l11.119-50.03537-29.38585-16.67846s-1.83735-7.545-4.88974-3.3754a28.22941 28.22941 0 0 1 -8.21479 6.9494z" fill="#575a89" transform="translate(-94.16628 -103.60349)"/><path d="m689.71672 480.04242 13.56428-76.24437-13.56428 7.14795s-15.48714 6.3537-18.664 13.89872-15.88424 43.68167-15.88424 43.68167 3.17685 21.84083 15.09 12.70739 9.13344-13.5016 9.13344-13.5016-10.32476 42.09324-8.73633 43.28456 2.38263 12.31029 2.38263 12.31029l12.31029-2.38264z" fill="#575a89" transform="translate(-94.16628 -103.60349)"/><path d="m674.22958 437.55207 5.16238-7.545s11.67555-23.42926 20.1336-15.48713-15.76543 26.209-15.76543 26.209z" fill="#ffb8b8" transform="translate(-94.16628 -103.60349)"/><path d="m649.954 416.15-3.177 4.076 7.942 10.219 3.574-7.148z" fill="#ffb8b8"/><path d="m700.14486 366.81971c-1.75072.01763-3.28421 1.10238-4.72307 2.09988s-3.06982 1.99257-4.80958 1.79622a5.18371 5.18371 0 0 1 -3.771-2.87972 15.31547 15.31547 0 0 1 -1.32357-4.733l1.981.69838-1.60482-1.82379 17.05779-5.18253c5.1611-1.56806 10.99426-3.07915 15.7223-.48275a15.49441 15.49441 0 0 1 5.71162 6.22584 32.45691 32.45691 0 0 1 -.45346 31.95824c-2.6161-.22267-4.32145-2.96271-4.74568-5.55377s-.011-5.27506-.53481-7.84783-2.48665-5.2081-5.111-5.12722l-1.38185 2.94641c.8843-1.88552-4.36753-6.49-5.61993-7.34581a17.07428 17.07428 0 0 1 -3.05976-2.22959c-1.08437-1.134-1.35712-2.53888-3.33418-2.51896z" fill="#2f2e41" transform="translate(-94.16628 -103.60349)"/><path d="m675.818 433.1839 9.53054 5.9566-9.53054 39.71061s-15.09 18.664-20.64952 0c-4.65354-15.6226 12.95134-37.088 18.81251-43.669 1.14101-1.28111 1.83701-1.99821 1.83701-1.99821z" fill="#575a89" transform="translate(-94.16628 -103.60349)"/><path d="m749.67974 418.491h9.13344s7.94213 15.48714 8.73634 23.82636.79421 41.299.79421 41.299l-15.48714 46.06431-11.91318-8.73634 9.92765-27.40032s-1.19132-5.95659 0-8.73633-3.574-17.07556-4.36816-17.86978 3.17684-48.4469 3.17684-48.4469z" fill="#575a89" transform="translate(-94.16628 -103.60349)"/><path d="m533.90574 224.30867h107.45571v9.57526h-107.45571z" fill="#3f3d56" transform="matrix(-1 0 0 -1 1081.10091 354.58911)"/><path d="m533.90574 259.58248h107.45571v9.57526h-107.45571z" fill="#3f3d56" transform="matrix(-1 0 0 -1 1081.10091 425.13673)"/><path d="m533.90574 291.18194h107.45571v9.57526h-107.45571z" fill="#3f3d56" transform="matrix(-1 0 0 -1 1081.10091 488.33565)"/><path d="m265.286 217.735 52.706-53.703h59.582v-2h-60.417l-.294.297-53 54z" fill="#3f3d56"/><circle cx="405.93539" cy="128.43229" fill="#38d39f" r="11.75794"/><circle cx="405.93539" cy="163.70611" fill="#38d39f" r="11.75794"/><circle cx="405.93539" cy="195.30557" fill="#38d39f" r="11.75794"/><path d="m493.48783 229.0963a12.49281 12.49281 0 1 1 12.49281 12.49281 12.50678 12.50678 0 0 1 -12.49281-12.49281zm1.46974 0a11.02307 11.02307 0 1 0 11.02307-11.02307 11.03559 11.03559 0 0 0 -11.02307 11.02307z" fill="#3f3d56" transform="translate(-94.16628 -103.60349)"/><path d="m493.48783 264.37011a12.49281 12.49281 0 1 1 12.49281 12.49281 12.50678 12.50678 0 0 1 -12.49281-12.49281zm1.46974 0a11.02307 11.02307 0 1 0 11.02307-11.02306 11.03558 11.03558 0 0 0 -11.02307 11.02306z" fill="#3f3d56" transform="translate(-94.16628 -103.60349)"/><path d="m493.48783 295.96957a12.49281 12.49281 0 1 1 12.49281 12.49281 12.50678 12.50678 0 0 1 -12.49281-12.49281zm1.46974 0a11.02307 11.02307 0 1 0 11.02307-11.02307 11.03558 11.03558 0 0 0 -11.02307 11.02307z" fill="#3f3d56" transform="translate(-94.16628 -103.60349)"/><path d="m536.28376 7.70518h107.45571v9.57526h-107.45571z" fill="#3f3d56"/><path d="m536.28376 42.97899h107.45571v9.57526h-107.45571z" fill="#3f3d56"/><path d="m536.28376 74.57845h107.45571v9.57526h-107.45571z" fill="#3f3d56"/><path d="m808.193 114.735-42.706-63.703h-59.582v-2h60.417l.294.297 43 64z" fill="#3f3d56"/><circle cx="677.54353" cy="15.43229" fill="#38d39f" r="11.75794"/><circle cx="677.54353" cy="50.70611" fill="#38d39f" r="11.75794"/><circle cx="677.54353" cy="82.30557" fill="#38d39f" r="11.75794"/><path d="m765.83084 128.58911a12.49281 12.49281 0 1 1 12.49281-12.49281 12.50678 12.50678 0 0 1 -12.49281 12.49281zm0-23.51588a11.02307 11.02307 0 1 0 11.02307 11.02307 11.03558 11.03558 0 0 0 -11.02307-11.02307z" fill="#3f3d56" transform="translate(-94.16628 -103.60349)"/><path d="m765.83084 163.86292a12.49281 12.49281 0 1 1 12.49281-12.49281 12.50678 12.50678 0 0 1 -12.49281 12.49281zm0-23.51587a11.02307 11.02307 0 1 0 11.02307 11.02306 11.03558 11.03558 0 0 0 -11.02307-11.02306z" fill="#3f3d56" transform="translate(-94.16628 -103.60349)"/><path d="m765.83084 195.46238a12.49281 12.49281 0 1 1 12.49281-12.49281 12.50678 12.50678 0 0 1 -12.49281 12.49281zm0-23.51588a11.02307 11.02307 0 1 0 11.02307 11.02307 11.03558 11.03558 0 0 0 -11.02307-11.02307z" fill="#3f3d56" transform="translate(-94.16628 -103.60349)"/><path d="m548.58853 480.77795h75.04911v6.68754h-75.04911z" fill="#3f3d56" transform="matrix(-1 0 0 -1 1078.0599 864.63996)"/><path d="m548.58853 505.41386h75.04911v6.68754h-75.04911z" fill="#3f3d56" transform="matrix(-1 0 0 -1 1078.0599 913.91177)"/><path d="m548.58853 527.48352h75.04911v6.68754h-75.04911z" fill="#3f3d56" transform="matrix(-1 0 0 -1 1078.0599 958.0511)"/><path d="m332.58 444.942 36.811-37.507h41.614v-1.397h-42.197l-.205.207-37.016 37.715z" fill="#3f3d56"/><circle cx="430.81285" cy="382.57123" fill="#38d39f" r="8.21197"/><circle cx="430.81285" cy="407.20713" fill="#38d39f" r="8.21197"/><circle cx="430.81285" cy="429.2768" fill="#38d39f" r="8.21197"/><path d="m520.3599 484.12173a8.72522 8.72522 0 1 1 8.72521 8.72521 8.735 8.735 0 0 1 -8.72521-8.72521zm1.02649 0a7.69872 7.69872 0 1 0 7.69872-7.69872 7.70746 7.70746 0 0 0 -7.69872 7.69872z" fill="#3f3d56" transform="translate(-94.16628 -103.60349)"/><path d="m520.3599 508.75763a8.72522 8.72522 0 1 1 8.72521 8.72522 8.735 8.735 0 0 1 -8.72521-8.72522zm1.02649 0a7.69872 7.69872 0 1 0 7.69872-7.69872 7.70746 7.70746 0 0 0 -7.69872 7.69872z" fill="#3f3d56" transform="translate(-94.16628 -103.60349)"/><path d="m520.3599 530.82729a8.72522 8.72522 0 1 1 8.72521 8.72522 8.735 8.735 0 0 1 -8.72521-8.72522zm1.02649 0a7.69872 7.69872 0 1 0 7.69872-7.69872 7.70746 7.70746 0 0 0 -7.69872 7.69872z" fill="#3f3d56" transform="translate(-94.16628 -103.60349)"/></svg>