<svg height="6" viewBox="0 0 17 6" width="17" xmlns="http://www.w3.org/2000/svg"><g fill="none" fill-rule="evenodd"><g fill="#447821" transform="translate(1.93425 1.640766)"><path d="m.71768 1.303267v-.207433h.41275v.7366c-.03806667.00988-.11567667.02046333-.23283.03175-.11571333.01128667-.19967667.01693-.25189.01693-.22013333 0-.37182667-.06067767-.45508-.182033s-.12488-.31114967-.12488-.569383c0-.25964467.04233333-.44873367.127-.567267.08607333-.11853333.23424-.1778.4445-.1778.12417333 0 .26387333.01411.4191.04233l.0741.01482-.008.186267c-.17074-.02258-.32384333-.03387-.45931-.03387s-.2286.0381-.2794.1143c-.0494.0762-.0741.217311-.0741.423333 0 .20602267.0233.348545.0699.427567.048.07761133.14395667.116417.28787.116417.10301333 0 .17992-.00635.23072-.01905v-.353484z"/><path d="m1.30792 1.857834v-1.058333h.2286v.127c.11994667-.07761133.23989-.127706.35983-.150284v.230717c-.12135333.02398667-.22507.05503-.31115.09313l-.0466.01905v.738717z"/><path d="m2.72603 1.667334.0593-.0063.004.17145c-.16086667.03245333-.30338667.04868-.42756.04868-.15663333 0-.26952333-.04303867-.33867-.129116-.06773333-.086078-.1016-.22366133-.1016-.41275 0-.375356.15310667-.563034.45932-.563034.29633333 0 .4445.16157233.4445.484717l-.0148.1651h-.65617c.00133333.08748867.0204.15169433.0572.192617.03666667.04092.10510667.06138.20532.06138.10018667 0 .20319667-.00423333.30903-.0127zm-.127-.4191c0-.104422-.01693333-.17709433-.0508-.218017-.03246667-.04233333-.08820333-.0635-.16721-.0635-.07902667 0-.13688333.02187333-.17357.06562-.03526667.04374667-.0536.11571333-.055.2159z" fill-rule="nonzero"/><path d="m3.74239 1.667334.0593-.0063.004.17145c-.16086667.03245333-.30339.04868-.42757.04868-.15663333 0-.26952333-.04303867-.33867-.129116-.06773333-.086078-.1016-.22366133-.1016-.41275 0-.375356.15310667-.563034.45932-.563034.29633333 0 .4445.16157233.4445.484717l-.0148.1651h-.65616c.00133333.08748867.02036667.15169433.0571.192617.03666667.04092.10510333.06138.20531.06138.10019333 0 .20320667-.00423333.30904-.0127zm-.127-.4191c0-.104422-.01693333-.17709433-.0508-.218017-.03246667-.04233333-.08820667-.0635-.16722-.0635-.07902 0-.13687667.02187333-.17357.06562-.03526667.04374667-.0536.11571333-.055.2159z" fill-rule="nonzero"/><path d="m4.21506 1.857834h-.23071v-1.058333h.2286v.06562c.10300667-.05926667.20037333-.0889.2921-.0889.14110667 0 .23706.04021667.28786.12065.0522.07902267.0783.210256.0783.3937v.567267h-.2286v-.560917c0-.1143-.0127-.19543867-.0381-.243416-.024-.04798-.07409333-.07197-.15028-.07197-.07196667 0-.14111333.01411-.20744.04233l-.0318.0127z"/><path d="m5.05209 1.857834v-1.058333h.23072v1.058333zm0-1.23825v-.243417h.23072v.243417z" fill-rule="nonzero"/><path d="m5.7015 1.857834h-.23071v-1.058333h.2286v.06562c.10300667-.05926667.20037333-.0889.2921-.0889.14110667 0 .23706.04021667.28786.12065.0522.07902267.0783.210256.0783.3937v.567267h-.2286v-.560917c0-.1143-.0127-.19543867-.0381-.243416-.024-.04798-.07409333-.07197-.15028-.07197-.07196667 0-.14111333.01411-.20744.04233l-.0317.0127z"/><path d="m7.47395 2.001767c0 .23142267-.16721667.347134-.50165.347134-.16086667 0-.28010667-.02187333-.35772-.06562s-.11642-.12347433-.11642-.239183c0-.05221333.0127-.097369.0381-.135467.0254-.03668667.06632333-.07690333.12277-.12065-.0466-.03104667-.0699-.08255233-.0699-.154517 0-.02822.01906667-.074081.0572-.137583l.019-.03175c-.1016-.06068-.1524-.16651333-.1524-.3175 0-.127.0381-.22013333.1143-.2794s.17921-.0889.30903-.0889c.06206667 0 .12345.00705667.18415.02117l.0317.0063.32809-.0085v.186267l-.17569-.01058c.03813333.04938667.0572.10724233.0572.173567 0 .13828867-.03527667.23424433-.10583.287867-.06914667.05221333-.17780333.07832-.32597.07832-.03666667 0-.0677-.00283333-.0931-.0085-.01973333.04798-.0296.08537433-.0296.112183 0 .0254.0127.04304.0381.05292.0268.00988.0903.01552333.1905.01693.16792.0014.28292333.02397667.34501.06773.06206667.04374667.0931.12629667.0931.24765zm-.7493.02117c0 .04938667.01976667.08466433.0593.105833.03953333.02116667.10726667.03175.2032.03175.17074667 0 .25612-.04868333.25612-.14605 0-.05503333-.01553333-.090311-.0466-.105833-.02966667-.01411333-.08963667-.02187333-.17991-.02328l-.20744-.0127c-.03106667.0254-.05293333.04868333-.0656.06985-.01266667.02258-.019.04939-.019.08043zm.0169-.8763c0 .06491333.01553333.112891.0466.143933.03106667.02963333.08116.04445.15028.04445.06914667 0 .11853667-.01481667.14817-.04445.03106667-.03104667.0466-.07902433.0466-.143933 0-.06491333-.01553333-.11218567-.0466-.141817-.03106667-.03104667-.08116333-.04657-.15029-.04657-.12982 0-.19473.06279433-.19473.188383z" fill-rule="nonzero"/></g><g fill="#aade87" transform="translate(8.93425 1.640766)"><g fill-rule="nonzero"><path d="m1.49861 1.857834h-.50165v-1.449917h.50165c.22295333 0 .37535333.05644467.4572.169334.08184667.11288867.12277.289983.12277.531283 0 .12276667-.00846667.227189-.0254.313267-.01553333.08466667-.04376667.161572-.0847.230716-.08043333.136878-.23706667.205317-.4699.205317zm.33655-.7493c0-.174978-.02186667-.30127233-.0656-.378883-.04373333-.07761133-.13404333-.116417-.27093-.116417h-.2667v1.037167h.2667c.1397 0 .23283333-.05150567.2794-.154517.0226-.05221333.03743333-.10795233.0445-.167217.00846667-.05926667.0127-.13264433.0127-.220133z"/><path d="m2.23563 1.857834v-1.058333h.23072v1.058333zm0-1.23825v-.243417h.23072v.243417z"/><path d="m3.57931 2.001767c0 .23142267-.16721667.347134-.50165.347134-.16086667 0-.28010667-.02187333-.35772-.06562s-.11642-.12347433-.11642-.239183c0-.05221333.0127-.097369.0381-.135467.0254-.03668667.06632333-.07690333.12277-.12065-.0466-.03104667-.0699-.08255233-.0699-.154517 0-.02822.01906667-.074081.0572-.137583l.019-.03175c-.1016-.06068-.1524-.16651333-.1524-.3175 0-.127.0381-.22013333.1143-.2794s.17921-.0889.30903-.0889c.06206667 0 .12345.00705667.18415.02117l.0317.0063.32809-.0085v.186267l-.17569-.01058c.03813333.04938667.0572.10724233.0572.173567 0 .13828867-.03527667.23424433-.10583.287867-.06914667.05221333-.17780333.07832-.32597.07832-.03666667 0-.0677-.00283333-.0931-.0085-.01973333.04798-.0296.08537433-.0296.112183 0 .0254.0127.04304.0381.05292.0268.00988.0903.01552333.1905.01693.16792.0014.28292333.02397667.34501.06773.06206667.04374667.0931.12629667.0931.24765zm-.7493.02117c0 .04938667.01976667.08466433.0593.105833.03953333.02116667.10726667.03175.2032.03175.17074667 0 .25612-.04868333.25612-.14605 0-.05503333-.01553333-.090311-.0466-.105833-.02966667-.01411333-.08963667-.02187333-.17991-.02328l-.20744-.0127c-.03106667.0254-.05293333.04868333-.0656.06985-.01273333.02258-.0191.04939-.0191.08043zm.0169-.8763c0 .06491333.01553333.112891.0466.143933.03106667.02963333.08116.04445.15028.04445.06914667 0 .11853667-.01481667.14817-.04445.03106667-.03104667.0466-.07902433.0466-.143933 0-.06491333-.01553333-.11218567-.0466-.141817-.03106667-.03104667-.08116333-.04657-.15029-.04657-.12982 0-.19473.06279433-.19473.188383z"/><path d="m3.68702 1.857834v-1.058333h.23072v1.058333zm0-1.23825v-.243417h.23072v.243417z"/></g><path d="m4.69596.996351h-.2921v.465666c0 .086078.00633333.143228.019.17145.01266667.02822.04513333.04233.0974.04233l.17357-.0064.0106.18415c-.09454.01834667-.16650667.02752-.2159.02752-.11994 0-.20249-.02751667-.24765-.08255-.04373333-.05503333-.0656-.15875-.0656-.31115v-.491066h-.13547v-.19685h.13547v-.306917h.2286v.306917h.2921z"/><path d="m5.59734 1.125467v.4826c.00133333.03104667.0091.05433.0233.06985.01553333.01411333.03883333.02328667.0699.02752l-.006.175683c-.12135333 0-.21519333-.02610667-.28152-.07832-.11288667.05221333-.22648.07832-.34078.07832-.21025333 0-.31538-.11218333-.31538-.33655 0-.107244.02823333-.184855.0847-.232833.05786667-.04798.14606333-.07690667.26459-.08678l.27305-.02328v-.0762c0-.05644667-.0127-.09595767-.0381-.118533-.024-.02258-.05998333-.03387-.10795-.03387-.09031333 0-.20320333.00564333-.33867.01693l-.0677.0042-.008-.162983c.15381333-.03668667.29492333-.05503.42333-.05503.12982667 0 .22296.02822333.2794.08467.05786667.05503333.0868.14322767.0868.264583zm-.47414.262467c-.09736667.00846667-.14605.06138333-.14605.15875s.04304.14605.12912.14605c.07055333 0 .14534333-.01129.22437-.03387l.0381-.0127v-.281516z" fill-rule="nonzero"/><path d="m5.80151 1.857834v-1.4986h.23071v1.4986z"/></g></g></svg>